<?xml version="1.0" encoding="utf-8"?>
<!-- Generator: Adobe Illustrator 22.0.1, SVG Export Plug-In . SVG Version: 6.00 Build 0)  -->
<svg version="1.1" id="Layer_1" xmlns="http://www.w3.org/2000/svg" xmlns:xlink="http://www.w3.org/1999/xlink" x="0px" y="0px"
	 viewBox="0 0 78.9 80.3" style="enable-background:new 0 0 78.9 80.3;" xml:space="preserve">
<style type="text/css">
	.st0{fill:url(#SVGID_1_);}
</style>
<linearGradient id="SVGID_1_" gradientUnits="userSpaceOnUse" x1="7.1639" y1="40.138" x2="71.7261" y2="40.138">
	<stop  offset="7.567567e-02" style="stop-color:#242021"/>
	<stop  offset="0.4405" style="stop-color:#24313F"/>
	<stop  offset="1" style="stop-color:#24537E"/>
</linearGradient>
<path class="st0" d="M57.2,53.3c4.8,7.1,9.5,14.1,14.5,21.5c-1.5,0.3-2.4,0.5-3.3,0.5c-4.9,0-9.7,0-14.6,0c-2.4,0-4-0.9-5.3-2.9
	c-2.7-4.1-5.6-8-8.1-12.2c-1.7-2.8-3.8-3.9-7-3.7c-5.9,0.2-5.9,0-5.9,6c0,3.1-0.1,6.2,0,9.4c0.1,2.3-0.7,3.5-3.2,3.5
	c-4.6-0.1-9.2-0.1-13.9,0c-2.4,0-3.3-1-3.3-3.4c0.1-9.2,0-18.5,0-27.7c0-3,0.4-3.4,3.6-3.4c9.1-0.1,18.2,0,27.3,0
	c1.6,0,3.3,0,4.8-0.4c5.1-1.4,7.4-5.1,7-10.8c-0.4-4.8-3.4-7.8-8.7-8.1c-6.5-0.3-13-0.1-19.5-0.2c-3.6,0-7.2,0.1-10.9,0
	c-3.2-0.1-3.6-0.6-3.7-3.8c-0.1-3.1,0-6.2,0-9.4c0-2.1,0.7-3.3,3-3.3c12.2,0.3,24.5-0.2,36.6,0.9c10.5,1,18.9,6.4,22.4,17.2
	c3.3,10.3,0.3,22.7-9.7,28.6C58.8,52,58.1,52.6,57.2,53.3z"/>
</svg>
