<?xml version="1.0" encoding="utf-8"?>
<!-- Generator: Adobe Illustrator 22.0.1, SVG Export Plug-In . SVG Version: 6.00 Build 0)  -->
<svg version="1.1" id="Layer_1" xmlns="http://www.w3.org/2000/svg" xmlns:xlink="http://www.w3.org/1999/xlink" x="0px" y="0px"
	 viewBox="0 0 706.9 80.3" style="enable-background:new 0 0 706.9 80.3;" xml:space="preserve">
<style type="text/css">
	.st0{fill:url(#SVGID_1_);}
	.st1{fill:url(#SVGID_2_);}
	.st2{fill:url(#SVGID_3_);}
	.st3{fill:url(#SVGID_4_);}
	.st4{fill:url(#SVGID_5_);}
	.st5{fill:url(#SVGID_6_);}
	.st6{fill:url(#SVGID_7_);}
	.st7{fill:url(#SVGID_8_);}
	.st8{fill:url(#SVGID_9_);}
	.st9{fill:url(#SVGID_10_);}
	.st10{fill:url(#SVGID_11_);}
</style>
<g>
	<linearGradient id="SVGID_1_" gradientUnits="userSpaceOnUse" x1="290.6204" y1="40.138" x2="368.5818" y2="40.138">
		<stop  offset="7.567567e-02" style="stop-color:#242021"/>
		<stop  offset="0.4405" style="stop-color:#24313F"/>
		<stop  offset="1" style="stop-color:#24537E"/>
	</linearGradient>
	<path class="st0" d="M329.7,76.2c-8.1,0.2-15.6-1.5-22.5-5.9c-8.2-5.2-13.6-12.5-15.6-22c-2.8-13.2,0.3-24.8,10.2-34.2
		c7-6.6,15.4-9.8,25.1-10.2c8.9-0.3,17.3,1.1,25.1,5.9c18.1,11.3,22.2,36.4,8.5,52.9C354.1,70.7,342.3,76.9,329.7,76.2z M329.4,59.6
		c10.7,1,18.8-9.1,18.9-19.3c0.1-10.6-7.9-20-18.5-19.8c-12,0.2-18.4,8.3-18.8,18.7C310.6,52.8,320,60.3,329.4,59.6z"/>
	<linearGradient id="SVGID_2_" gradientUnits="userSpaceOnUse" x1="166.7256" y1="40.1153" x2="239.4676" y2="40.1153">
		<stop  offset="7.567567e-02" style="stop-color:#242021"/>
		<stop  offset="0.4405" style="stop-color:#24313F"/>
		<stop  offset="1" style="stop-color:#24537E"/>
	</linearGradient>
	<path class="st1" d="M187.7,4.9c8.4,0.1,17.5-0.5,26.4,2c27.1,7.6,32.1,39.3,16.5,56.5c-6.3,6.9-14.6,10.7-23.9,11.1
		c-12.1,0.6-24.2,0.6-36.3,0.8c-3.1,0-3.7-0.6-3.7-3.8c-0.1-9.2,0-18.5,0-27.7c0-2.5,1-3.7,3.6-3.6c4.5,0.1,9,0.1,13.5,0
		c2.4,0,3.3,1.1,3.3,3.4c-0.1,4,0.1,8,0,12c-0.1,2.4,0.9,3.4,3.3,3.3c5-0.3,10,0,14.9-0.8c10-1.6,14.8-10.8,13.6-20.2
		c-1.3-10.8-8.1-16.5-19.1-16.6c-9.5,0-19,0-28.5,0c-4.2,0-4.5-0.4-4.6-4.4c0-2.6,0-5.3,0-7.9c0.1-3.7,0.5-4.1,4.1-4.2
		C176.3,4.8,181.6,4.9,187.7,4.9z"/>
	<linearGradient id="SVGID_3_" gradientUnits="userSpaceOnUse" x1="3.8996" y1="40.1548" x2="68.4619" y2="40.1548">
		<stop  offset="7.567567e-02" style="stop-color:#242021"/>
		<stop  offset="0.4405" style="stop-color:#24313F"/>
		<stop  offset="1" style="stop-color:#24537E"/>
	</linearGradient>
	<path class="st2" d="M53.9,53.3c4.8,7.1,9.5,14.1,14.5,21.5c-1.5,0.3-2.4,0.5-3.3,0.5c-4.9,0-9.7,0-14.6,0c-2.4,0-4-0.9-5.3-2.9
		c-2.7-4.1-5.6-8-8.1-12.2c-1.7-2.8-3.8-3.9-7-3.7c-5.9,0.2-5.9,0-5.9,6c0,3.1-0.1,6.2,0,9.4c0.1,2.3-0.7,3.5-3.2,3.5
		c-4.6-0.1-9.2-0.1-13.9,0c-2.4,0-3.3-1-3.3-3.4c0.1-9.2,0-18.5,0-27.7c0-3,0.4-3.4,3.6-3.4c9.1-0.1,18.2,0,27.3,0
		c1.6,0,3.3,0,4.8-0.4c5.1-1.4,7.4-5.1,7-10.8c-0.4-4.8-3.4-7.8-8.7-8.1c-6.5-0.3-13-0.1-19.5-0.2c-3.6,0-7.2,0.1-10.9,0
		c-3.2-0.1-3.6-0.6-3.7-3.8c-0.1-3.1,0-6.2,0-9.4c0-2.1,0.7-3.3,3-3.3c12.2,0.3,24.5-0.2,36.6,0.9c10.5,1,18.9,6.4,22.4,17.2
		c3.3,10.3,0.3,22.7-9.7,28.6C55.5,52,54.9,52.6,53.9,53.3z"/>
	<linearGradient id="SVGID_4_" gradientUnits="userSpaceOnUse" x1="568.6242" y1="40.1626" x2="632.6495" y2="40.1626">
		<stop  offset="7.567567e-02" style="stop-color:#242021"/>
		<stop  offset="0.4405" style="stop-color:#24313F"/>
		<stop  offset="1" style="stop-color:#24537E"/>
	</linearGradient>
	<path class="st3" d="M618.2,53.3c4.9,7.3,9.5,14.1,14.4,21.4c-1.5,0.3-2.4,0.7-3.3,0.7c-4.9,0.1-9.7-0.1-14.6,0.1
		c-2.3,0.1-3.7-0.9-4.9-2.7c-2.9-4.4-6-8.6-8.8-13c-1.4-2.3-3.2-3.1-5.9-3c-7.7,0.2-6.9-0.5-6.9,6.8c0,3-0.1,6,0,9
		c0,2.1-1,2.9-3,2.9c-4.5,0-9,0-13.5,0c-2.2,0-3.2-0.8-3.2-3.1c0-9.4,0.1-18.7,0-28.1c0-2.8,1.4-3.3,3.8-3.3c8.5,0.1,17,0,25.5,0
		c1.6,0,3.3,0.1,4.9-0.1c4.9-0.5,8.4-4.3,8.6-9.3c0.2-4.9-2.9-9.3-7.8-9.9c-5.3-0.6-10.7-0.7-16-0.9c-5.1-0.1-10.2,0-15.4-0.1
		c-3.1,0-3.4-0.4-3.5-3.5c-0.1-3.1,0-6.2,0-9.4c0-2.1,0.9-3,3-2.9c12.1,0.2,24.3-0.3,36.3,0.9c12,1.2,21.8,9,23.5,21.6
		c1.3,9.6-1.9,17.4-9.6,23.3C620.7,51.6,619.6,52.3,618.2,53.3z"/>
	<linearGradient id="SVGID_5_" gradientUnits="userSpaceOnUse" x1="75.0643" y1="40.1315" x2="156.1033" y2="40.1315">
		<stop  offset="7.567567e-02" style="stop-color:#242021"/>
		<stop  offset="0.4405" style="stop-color:#24313F"/>
		<stop  offset="1" style="stop-color:#24537E"/>
	</linearGradient>
	<path class="st4" d="M156.1,75.3c-6.8,0-12.9,0.1-19-0.1c-1,0-2.3-1.7-2.8-2.9c-5.6-13.6-11-27.3-16.5-41c-0.7-1.7-1.4-3.4-2.4-5.7
		c-0.7,1.4-1.1,2.2-1.5,3c-5.8,14.5-11.7,29-17.4,43.5c-1,2.5-2.3,3.5-5,3.4c-4.2-0.2-8.5,0-12.7-0.1c-1.1,0-2.1-0.2-3.8-0.4
		c1-2.5,1.7-4.6,2.6-6.6c8.3-18.9,16.6-37.7,25-56.5c3.7-8.2,2.4-6.8,10.3-6.9c2.9,0,5.8,0.2,8.6-0.1c2.8-0.2,4.3,1.1,5.4,3.6
		c4,9.3,8.2,18.5,12.3,27.8c5.2,11.9,10.5,23.8,15.7,35.7C155.2,72.7,155.5,73.6,156.1,75.3z"/>
	<linearGradient id="SVGID_6_" gradientUnits="userSpaceOnUse" x1="476.3479" y1="40.1392" x2="557.2502" y2="40.1392">
		<stop  offset="7.567567e-02" style="stop-color:#242021"/>
		<stop  offset="0.4405" style="stop-color:#24313F"/>
		<stop  offset="1" style="stop-color:#24537E"/>
	</linearGradient>
	<path class="st5" d="M557.3,75.1c-1.8,0.1-3.3,0.2-4.7,0.2c-3.7,0-7.5,0-11.2,0c-4.2,0-4.5-0.2-6.1-4.1
		C530.1,58.5,525,45.7,519.9,33c-0.9-2.3-1.9-4.6-3.2-7.6c-1,2.4-1.9,4.1-2.6,5.9c-5.4,13.6-10.9,27.1-16.2,40.7
		c-1,2.5-2.3,3.5-5,3.4c-4.2-0.2-8.5,0-12.7-0.1c-1.1,0-2.1-0.2-3.8-0.4c1.3-3.2,2.4-5.9,3.6-8.6C488.4,47,497,27.7,505.5,8.4
		c1.1-2.5,2.6-3.7,5.4-3.5c4.1,0.2,8.2,0.1,12.4,0c2.3-0.1,3.7,0.8,4.6,2.9c3.1,7.1,6.3,14.1,9.4,21.2c6.3,14.3,12.6,28.6,18.9,42.9
		C556.5,72.7,556.8,73.7,557.3,75.1z"/>
	<linearGradient id="SVGID_7_" gradientUnits="userSpaceOnUse" x1="639.9534" y1="40.1445" x2="702.9904" y2="40.1445">
		<stop  offset="7.567567e-02" style="stop-color:#242021"/>
		<stop  offset="0.4405" style="stop-color:#24313F"/>
		<stop  offset="1" style="stop-color:#24537E"/>
	</linearGradient>
	<path class="st6" d="M671.6,4.9c9.1,0,18.2,0,27.3,0c3.8,0,4,0.3,4.1,4.1c0,2.9-0.1,5.7,0,8.6c0,2.2-1,3.1-3.2,3.1
		c-4.7-0.1-9.5,0-14.2,0c-3.9,0-4.3,0.4-4.3,4.3c0,15.1,0,30.2,0,45.3c0,5,0,5-5,5c-3.6,0-7.2,0-10.9,0c-3.3-0.1-3.7-0.4-3.7-3.7
		c-0.1-7.1,0-14.2,0-21.4c0-8.4,0-16.7,0-25.1c0-4.5-0.1-4.5-4.7-4.5c-4.5,0-9,0-13.5,0c-3.1,0-3.4-0.4-3.5-3.5
		c-0.1-2.7-0.1-5.5,0-8.2c0.1-3.6,0.5-4,4.2-4.1C653.3,4.9,662.5,4.9,671.6,4.9z"/>
	<linearGradient id="SVGID_8_" gradientUnits="userSpaceOnUse" x1="384.2811" y1="36.5698" x2="464.881" y2="36.5698">
		<stop  offset="7.567567e-02" style="stop-color:#242021"/>
		<stop  offset="0.4405" style="stop-color:#24313F"/>
		<stop  offset="1" style="stop-color:#24537E"/>
	</linearGradient>
	<path class="st7" d="M384.3,5c5.4,0,10.3-0.2,15.1,0.1c1,0.1,2.2,1.5,2.8,2.6c7,11.4,13.9,22.8,20.9,34.2c0.5,0.8,1.1,1.6,2,3
		c1.8-2.9,3.4-5.4,5-8c5.7-9.6,11.4-19.1,17-28.7c1.3-2.3,2.9-3.5,5.7-3.4c3.7,0.2,7.4,0,12.2,0c-1.9,3.8-3.3,6.8-4.9,9.7
		c-9.6,16.8-19.2,33.6-28.8,50.4c-2.4,4.2-10,4.6-12.5,0.4c-6.5-10.5-13-21-19.2-31.8c-4.9-8.5-9.4-17.3-14.1-26
		C385,7.1,384.9,6.5,384.3,5z"/>
	<linearGradient id="SVGID_9_" gradientUnits="userSpaceOnUse" x1="255.1142" y1="40.1394" x2="274.82" y2="40.1394">
		<stop  offset="7.567567e-02" style="stop-color:#242021"/>
		<stop  offset="0.4405" style="stop-color:#24313F"/>
		<stop  offset="1" style="stop-color:#24537E"/>
	</linearGradient>
	<path class="st8" d="M274.8,40.6c0,10.2,0,20.5,0,30.7c0,3.8-0.3,4.1-4,4.1c-3.7,0-7.5,0-11.2,0c-4.3,0-4.5-0.2-4.5-4.4
		c0-15.6,0-31.2,0-46.8c0-5,0-10,0-15c0-4.1,0.2-4.3,4.2-4.3c3.7,0,7.5,0,11.2,0c4,0,4.3,0.2,4.3,4.2
		C274.8,19.6,274.8,30.1,274.8,40.6z"/>
	<linearGradient id="SVGID_10_" gradientUnits="userSpaceOnUse" x1="447.0848" y1="53.8508" x2="465.3082" y2="53.8508">
		<stop  offset="7.567567e-02" style="stop-color:#242021"/>
		<stop  offset="0.4405" style="stop-color:#24313F"/>
		<stop  offset="1" style="stop-color:#24537E"/>
	</linearGradient>
	<path class="st9" d="M465,32.3c0.1,1.6,0.3,2.6,0.3,3.5c0,11.7,0,23.4,0,35.1c0,4.2-0.2,4.4-4.4,4.4c-3.5,0-7,0-10.5,0
		c-2.1,0-3.2-0.7-3.3-3c-0.2-5.1,0.3-9.8,3.1-14.3c4.7-7.8,9-15.8,13.4-23.7C463.9,33.8,464.3,33.4,465,32.3z"/>
	<linearGradient id="SVGID_11_" gradientUnits="userSpaceOnUse" x1="384.1597" y1="54.7916" x2="403.024" y2="54.7916">
		<stop  offset="7.567567e-02" style="stop-color:#242021"/>
		<stop  offset="0.4405" style="stop-color:#24313F"/>
		<stop  offset="1" style="stop-color:#24537E"/>
	</linearGradient>
	<path class="st10" d="M385.1,34.2c1.2,2,2.4,3.9,3.6,5.9c4.4,7.8,8.6,15.7,13.1,23.5c1.8,3.2,1.3,6.5,0.9,9.8
		c-0.1,0.8-2,1.8-3.1,1.8c-4,0.2-8,0.2-12,0.1c-3-0.1-3.4-0.4-3.4-3.5c0-9.6,0-19.2,0-28.8c0-2.9,0-5.7,0-8.6
		C384.5,34.4,384.8,34.3,385.1,34.2z"/>
</g>
</svg>
